<?xml version="1.0" standalone="no"?>
<!DOCTYPE svg PUBLIC "-//W3C//DTD SVG 20010904//EN"
 "http://www.w3.org/TR/2001/REC-SVG-20010904/DTD/svg10.dtd">
<svg version="1.0" xmlns="http://www.w3.org/2000/svg"
 width="800.000000pt" height="800.000000pt" viewBox="0 0 800.000000 800.000000"
 preserveAspectRatio="xMidYMid meet">

<g transform="translate(0.000000,800.000000) scale(0.100000,-0.100000)"
fill="#000000" stroke="none">
<path d="M3941 7084 c-272 -73 -633 -479 -900 -1011 -72 -144 -101 -259 -101
-403 0 -167 47 -314 145 -461 l52 -77 -44 -7 c-79 -12 -152 -43 -269 -116
-205 -127 -285 -203 -379 -361 -100 -169 -232 -505 -288 -739 -51 -208 -59
-439 -21 -569 54 -183 216 -345 458 -456 76 -35 88 -45 115 -89 31 -51 31 -52
31 -196 0 -110 3 -150 14 -165 14 -19 39 -19 1284 -19 1051 0 1272 2 1285 14
14 11 17 39 19 164 l3 151 46 27 c25 15 95 52 154 83 136 72 181 103 269 187
137 130 178 234 178 449 0 158 -15 258 -76 500 -112 445 -227 713 -366 850
-74 74 -252 197 -418 289 -62 35 -112 64 -112 66 0 1 16 29 35 61 151 250 138
581 -36 913 -262 501 -590 846 -870 915 -79 19 -136 19 -208 0z m524 -1079
c232 -31 412 -94 493 -175 34 -35 42 -49 48 -96 3 -30 1 -95 -5 -144 -29 -229
-117 -391 -312 -574 -227 -214 -423 -322 -607 -333 -71 -5 -93 -2 -165 21
-177 58 -365 184 -553 371 -122 122 -134 137 -182 235 -60 121 -89 234 -98
385 l-7 101 37 32 c111 97 379 171 696 192 167 11 515 3 655 -15z m712 -1705
c65 -39 62 1 74 -889 11 -786 11 -811 -7 -842 -11 -17 -35 -40 -54 -50 -33
-18 -81 -19 -1148 -19 -1261 0 -1167 -6 -1205 79 -20 45 -20 58 -14 691 4 355
7 718 7 807 0 160 0 162 27 193 14 18 36 36 47 40 12 5 521 9 1131 9 1084 1
1111 0 1142 -19z"/>
<path d="M3825 5884 c-424 -32 -533 -68 -565 -182 -43 -155 65 -406 260 -603
134 -136 263 -211 420 -245 85 -18 134 -17 227 2 182 37 346 148 483 325 172
223 228 466 133 579 -42 51 -142 83 -333 106 -112 14 -526 26 -625 18z"/>
<path d="M3857 3753 c-4 -3 -7 -26 -7 -50 0 -35 3 -43 19 -43 37 0 42 -22 39
-176 l-3 -149 -27 -3 c-26 -3 -28 -6 -28 -53 l0 -49 245 0 245 0 0 105 0 105
-54 0 c-54 0 -54 0 -60 -35 -10 -53 -40 -75 -101 -75 -28 0 -56 5 -63 12 -8 8
-12 56 -12 149 0 112 3 141 16 153 8 9 22 16 30 16 10 0 14 13 14 50 l0 50
-123 0 c-68 0 -127 -3 -130 -7z"/>
<path d="M3225 2079 c-16 -10 -58 -28 -92 -40 -70 -23 -79 -40 -31 -54 19 -6
38 -21 45 -35 14 -28 18 -270 5 -270 -5 0 -24 8 -43 18 -47 24 -159 23 -224
-2 -66 -26 -137 -94 -166 -159 -31 -71 -32 -192 -2 -258 29 -65 89 -128 148
-155 82 -39 194 -29 254 21 16 14 31 25 34 25 3 0 3 -19 0 -42 -6 -38 -4 -41
13 -33 10 4 58 20 107 34 52 15 87 30 87 38 0 7 -9 13 -19 13 -10 0 -29 9 -42
19 l-24 19 1 441 c1 315 -2 441 -10 440 -6 0 -24 -9 -41 -20z m-139 -415 c71
-34 74 -45 74 -249 l0 -183 -36 -32 c-44 -38 -73 -50 -126 -50 -93 0 -157 86
-165 224 -10 149 29 250 110 287 52 23 98 24 143 3z"/>
<path d="M6325 2091 c-82 -20 -164 -89 -217 -182 -32 -56 -46 -99 -56 -174 -7
-59 -7 -59 -52 -76 -59 -22 -59 -42 0 -49 l45 -5 3 -194 c3 -216 -1 -234 -61
-249 -17 -4 -33 -15 -35 -23 -2 -13 20 -15 158 -15 139 0 160 2 158 15 -2 8
-18 18 -36 22 -19 4 -39 12 -45 18 -8 8 -13 80 -15 222 l-3 210 83 -3 83 -3 0
30 0 30 -80 5 -80 5 0 120 c0 128 12 170 59 207 28 23 45 22 107 -7 74 -34
129 -20 129 34 0 37 -11 50 -51 61 -38 11 -51 11 -94 1z"/>
<path d="M6900 2078 c-51 -35 -73 -71 -73 -120 0 -152 194 -205 273 -76 76
126 -79 278 -200 196z m124 -2 c41 -17 74 -58 82 -104 14 -74 -55 -152 -136
-152 -135 0 -180 193 -59 253 42 20 70 21 113 3z"/>
<path d="M6898 2023 c16 -6 16 -125 0 -141 -9 -9 -1 -12 37 -12 38 0 46 3 37
12 -14 14 -16 58 -3 58 5 0 18 -15 28 -32 14 -23 27 -33 46 -34 33 -2 33 -2 2
32 -29 31 -31 46 -10 64 19 16 19 25 -1 44 -11 12 -34 16 -82 15 -37 0 -61 -3
-54 -6z m100 -36 c3 -22 -1 -27 -17 -27 -17 0 -21 6 -21 31 0 24 4 30 18 27
10 -2 18 -14 20 -31z"/>
<path d="M1214 2051 c-14 -14 1 -31 34 -36 55 -10 92 -26 102 -46 6 -10 10
-168 10 -381 0 -307 -2 -367 -15 -385 -14 -20 -44 -33 -107 -47 -16 -4 -28
-12 -28 -19 0 -10 76 -13 370 -13 365 0 371 1 375 21 2 11 13 65 24 120 25
122 25 115 1 115 -11 0 -20 -5 -20 -11 0 -6 -20 -41 -44 -78 -35 -55 -54 -73
-97 -95 -48 -23 -64 -26 -166 -26 -168 0 -153 -39 -153 415 0 430 -6 404 95
425 41 8 55 16 53 26 -3 13 -37 16 -216 17 -118 1 -216 0 -218 -2z"/>
<path d="M6521 1769 c-30 -33 -71 -72 -92 -86 -50 -33 -50 -51 -1 -55 l37 -3
5 -212 c6 -235 8 -245 80 -287 63 -37 194 -17 239 38 17 20 5 39 -17 27 -31
-16 -97 -22 -125 -12 -48 19 -57 59 -57 260 l0 180 108 3 107 3 0 30 0 30
-105 3 -106 3 4 69 c5 89 -5 90 -77 9z"/>
<path d="M2260 1708 c-80 -21 -166 -110 -190 -196 -15 -55 -12 -173 5 -222 20
-58 76 -124 131 -156 69 -40 164 -45 237 -11 63 29 137 97 137 127 0 26 -6 25
-44 -7 -97 -82 -217 -84 -289 -4 -42 47 -57 93 -57 179 l0 62 195 0 c158 0
197 3 201 14 10 27 -17 97 -54 138 -68 76 -170 104 -272 76z m151 -51 c19 -13
40 -39 48 -60 23 -62 6 -71 -140 -76 l-121 -3 7 23 c38 121 125 171 206 116z"/>
<path d="M3630 1711 c-78 -25 -146 -87 -182 -166 -32 -70 -33 -209 -1 -277 80
-174 296 -221 438 -96 54 47 71 76 57 90 -7 7 -24 -1 -53 -26 -83 -70 -200
-74 -272 -8 -45 40 -79 164 -63 227 l6 25 191 0 c210 0 207 -1 195 65 -10 50
-64 115 -120 144 -52 27 -148 38 -196 22z m168 -76 c26 -28 32 -43 30 -68 -4
-39 -21 -44 -165 -46 l-102 -1 15 42 c16 45 56 94 89 109 41 18 98 3 133 -36z"/>
<path d="M4855 1709 c-48 -14 -113 -75 -126 -119 -28 -92 16 -156 154 -225
108 -54 127 -73 127 -126 0 -55 -33 -90 -90 -96 -38 -4 -53 0 -93 26 -27 18
-54 45 -64 66 -21 44 -55 50 -47 8 3 -16 8 -48 12 -73 l7 -44 65 -12 c89 -17
140 -17 191 1 94 34 151 127 128 210 -12 43 -62 86 -149 130 -101 51 -140 88
-140 134 0 99 148 122 195 31 8 -16 15 -36 15 -45 0 -9 9 -15 21 -15 19 0 20
4 14 68 -4 37 -8 68 -9 69 -2 2 -26 7 -56 13 -62 12 -113 12 -155 -1z"/>
<path d="M5432 1706 c-82 -27 -141 -76 -180 -151 -24 -45 -27 -61 -27 -150 0
-84 3 -107 22 -142 53 -98 141 -153 259 -161 140 -9 247 47 303 159 27 53 31
73 31 139 0 44 -7 96 -16 123 -22 65 -91 139 -156 167 -65 28 -175 36 -236 16z
m173 -49 c56 -32 95 -110 102 -208 14 -192 -63 -317 -188 -306 -64 5 -106 38
-137 106 -22 47 -26 71 -26 146 -1 107 15 170 57 220 54 66 123 81 192 42z"/>
<path d="M4000 1678 c0 -11 8 -18 20 -18 52 0 101 -45 199 -182 42 -59 60 -92
54 -102 -4 -7 -43 -55 -85 -105 -71 -82 -83 -92 -134 -107 -90 -26 -64 -39 79
-40 102 -1 127 2 127 13 0 8 -13 19 -30 24 -33 12 -36 20 -18 52 18 35 90 127
98 127 12 0 100 -133 100 -152 0 -9 -13 -21 -30 -27 -16 -5 -30 -16 -30 -24 0
-11 31 -13 160 -13 137 0 160 3 158 15 -2 8 -18 18 -36 22 -19 4 -47 20 -64
35 -30 29 -178 228 -178 240 0 10 103 134 143 172 19 18 54 39 78 46 24 7 44
19 44 26 0 10 -32 13 -127 14 -113 1 -128 0 -128 -15 0 -10 11 -19 30 -22 20
-4 30 -13 30 -24 0 -18 -88 -153 -100 -153 -7 0 -70 90 -90 128 -14 28 1 52
31 52 11 0 19 7 19 18 0 15 -14 17 -160 17 -146 0 -160 -2 -160 -17z"/>
</g>
</svg>
